<svg version="1.0" xmlns="http://www.w3.org/2000/svg" width="682.667" height="682.667" viewBox="0 0 512 512"><path d="M414.7.6c-.1.1-2.7.4-5.7.8-5.8.6-11.5 2-16.5 3.9-5.6 2.2-20 9.8-21 11.1-.5.7-1.4 1.4-2 1.6-1.2.4-10.9 8-10.2 8 .3 0-1.1 1.7-3.1 3.7-7.1 7.2-15.3 21.6-16.9 29.5-.3 1.5-.9 3-1.2 3.3-.4.2-2.7-1.9-5.1-4.6-8.7-9.9-28.6-21.5-38.5-22.4-.5-.1-3.4-.7-6.4-1.4-20.2-5-45.9 1.3-66.1 16.2-5.9 4.4-20 18.1-24 23.5-1.4 1.8-3.5 4.5-4.8 6-1.2 1.5-2.5 3.5-2.8 4.4-.3 1-.9 1.8-1.4 1.8-.5 0-1.2.9-1.5 2-.3 1.1-1.2 2.6-1.9 3.3-.9.8-1 2-.5 3.5l.9 2.3 3.7-2c10.1-5.4 24-10.1 34.8-11.6 7.8-1.1 24.3-1.4 32-.5 6.6.8 9.2 1.2 17.3 2.6l3.3.6-6.6 3.4c-13.9 7.2-25.6 16.6-38 30.6-5.6 6.3-7.5 8.7-7.5 9.4 0 .2-.9 1.4-2 2.6-4 4.3-13.5 24.6-15.6 33.3-5.6 23-5.3 45.7 1.1 71.5 3.5 14.5 12.1 36 14.3 36 1.9-.1 3.1-2 5-8 1.8-5.8 4.4-12.8 7.5-20 .6-1.4 1.1-2.8 1.2-3.3.2-.4.4-1 .5-1.5.1-.4.2-1 .1-1.5 0-.4.4-.7 1.1-.7.6 0 .9-.2.6-.5-1.2-1.2 19.4-39.4 25.9-48.1 1.3-1.7 2.3-3.6 2.3-4.2 0-.6.3-1.2.8-1.4.4-.2 2.7-3 5.1-6.3 4.4-5.9 6.5-8.4 10.9-13 1.2-1.3 2.2-2.6 2.2-2.9 0-1.7 36.4-38.6 38-38.6.8 0 1.1.3.8.6-.4.3-.2 2 .4 3.7.5 1.8 1.1 4.1 1.3 5.2.2 1.1 1.1 5.6 2 10 .9 4.4 1.8 9.1 2 10.5.2 1.4.6 4.7 1 7.5.4 2.7.8 6.1 1 7.5.2 1.4.6 6.3 1 11s.9 10.1 1.1 12c.5 4.9.5 34 0 37-.2 1.4-.7 4.7-1 7.5-.3 2.7-.8 6.1-1.2 7.5-.3 1.4-.8 3.8-1 5.4-.4 2.2-4 15.1-8 29.1-.3 1.1-.6 2.6-.6 3.2-.1.7-.5 1.3-1 1.3s-.7.4-.4.8c.2.4-.4 2.7-1.5 5.1-1 2.4-1.9 4.9-1.9 5.6 0 .7-.4 1.5-1 1.7-.5.1-1.1 1.5-1.2 3-.1 1.6-.5 2.8-.9 2.8s-1.7 2.8-3 6.2c-1.2 3.5-2.7 6.6-3.2 6.9-.5.3-.8.9-.8 1.3.1 1.2-1.1 4.1-4.2 10.6l-3.2 6.5-5.5-.4c-15-1-51.2-1.4-63-.6-21.7 1.4-29.5 2.3-45 5.1-13.2 2.4-13.3 2.5-14.2 3-.5.3-1.9.7-3.2 1-2.5.4-13.9 3.9-17.1 5.2-9.5 3.9-30.2 15.2-27.9 15.2.5.1-.1.6-1.3 1.3-1.2.7-4.2 3.1-6.7 5.5s-4.6 4.1-4.6 3.8c0-.2-2.3.2-5.2 1-2.9.7-5.4 1.1-5.6.9-.3-.2-1.7.2-3.2 1-1.5.8-3 1.2-3.2 1-.3-.3-5.1.8-10.8 2.5-5.7 1.6-10.7 2.7-11.1 2.5-.4-.3-.9-.1-1.1.3-.1.4-3.2 1.7-6.8 2.9-9.7 3.2-21.6 8-29.4 11.9C27.1 400 15 407.9 15 409.1c0 .5-.5.9-1.1.9-2.3 0-10.8 11.3-12.7 16.7-1.7 5-.8 14.5 1.9 19.5 1.3 2.4 2.6 4.5 2.9 4.8.3.3 1.8 2 3.3 3.8 1.5 1.9 2.7 3 2.7 2.6 0-.5.7.2 1.6 1.4.8 1.2 2 2 2.5 1.7.5-.4.9 0 .9.8 0 .7 1 1.9 2.3 2.5 1.2.7 4 2.3 6.2 3.7 7.8 4.9 25 12.7 35.2 16.1 2.7.8 5.5 1.8 6.3 2.1.8.3 2.1.7 2.8.9.8.1 2.1.6 3 1 .9.4 2.2.8 2.7.9.6.2 3.3.9 6 1.8 2.8.8 5.3 1.5 5.8 1.6.4 0 .8.1 1 .2.1 0 .9.2 1.7.4.8.1 3.3.7 5.5 1.3 2.2.6 5.1 1.3 6.5 1.6 1.4.2 3.6.7 5 1 1.4.3 3.6.8 5 1 1.4.2 3.8.7 5.5 1.2 1.6.4 4.1.8 5.5 1 1.4.1 2.5.3 2.5.4 0 .1 1.4.4 3 .5 1.7.2 4.4.7 6 1 2.9.6 6.4 1.1 13.5 1.9 3.6.4 10.2 1.3 15.6 2.1 3 .4 6.2.7 20.4 2.1 20.2 1.8 44.4 2.7 72.5 2.7 22.8 0 56.1-1 60.3-1.8.9-.1 5.8-.6 10.7-1 5-.3 10.6-.8 12.5-1 1.9-.2 6-.7 9-1 3-.3 6.6-.8 8-1 1.4-.2 4.5-.7 7-1 2.5-.3 5.7-.8 7.1-1 1.4-.3 4.3-.7 6.3-1 2.1-.2 4.6-.6 5.5-.9.9-.3 3.8-.7 6.5-1.1 2.7-.3 5.3-.8 5.8-1.1.5-.3 2.5-.8 4.6-1 2-.3 4.5-.7 5.4-1 1-.3 3-.7 4.5-1 1.6-.3 4.6-1 6.8-1.6 2.2-.6 4.4-1.1 4.8-1 .4.1 1.6-.2 2.6-.7 1.7-1 7.2-2.3 9.9-2.4.6 0 1.2-.5 1.2-1 0-.6.3-.7.7-.4.3.4 1.2.2 2-.4.7-.6 1.3-.9 1.3-.6 0 .4 1.9-.1 4.3-.9 2.3-.9 4.7-1.7 5.2-1.8.6-.2 1.9-.7 3-1.1 1.1-.4 4.9-1.9 8.5-3.2 53-20.2 66.7-49.3 34.4-73.5-3.2-2.4-7.9-5.6-10.4-7-9.9-5.6-12-6.7-12-6.2 0 .3-.7-.2-1.6-1-.8-.9-2.2-1.6-3-1.6-.8 0-4.2-2.9-7.7-6.4-7.8-8-15-13.6-23.5-18.3-3.7-2-6.8-4.1-7-4.5-.2-.4-.8-.8-1.3-.8-.6 0-3.1-1-5.7-2.1-9.3-4.3-13.2-5.8-13.2-5.2 0 .3-.6.1-1.3-.5-1.3-1.1-8.8-4-12.3-4.7-1.2-.3-3.9-1.1-6-1.8-2.1-.8-6.7-2-10.1-2.7-7-1.6-7-1.6-4.9-9.8.8-2.9 1.5-5.6 1.5-6 .1-.8.9-5.3 1.6-9.7 1.2-6.5 1.9-13.2 1.9-17.7.1-2.7.4-4.8.7-4.8.3 0 .6-1.9.8-4.3.1-2.3.4-5.8.6-7.7 1.3-11.4 1.9-26.7 2-51 0-30-.7-40.8-4.1-59.5-.8-4.4-1.7-9.6-2-11.5-.4-1.9-1.1-4.1-1.6-4.8-.6-.6-.8-1.2-.5-1.2.2 0-.4-3.3-1.5-7.3-1.1-3.9-2.3-8.7-2.5-10.5-.3-1.7-.8-3.2-1.2-3.2-.4 0-.8-.6-.9-1.3-.1-2.2-1-5.5-2-7.4-.6-1-1.1-2.3-1.2-2.8-.8-3.2-2.5-7.6-5.1-12.9-1.3-2.7-1.6-4.3-.9-5 .6-.6 1-.7 1 0 0 .5 1.6 1.1 3.7 1.2 2 .2 4.1.6 4.7 1 .6.3 2 .8 3 .9 1.1.2 2.5.8 3.1 1.3.7.5 1.4.7 1.8.4.3-.3 2 .1 3.9.9 1.8.8 4.9 2 6.8 2.7 15 5.3 36.7 17.2 49.7 27.3 11 8.7 27.1 25.2 37.7 38.7 2.9 3.8 10.6 16 12.7 20.2 1.8 3.5 3 4.8 4.7 4.8 1.2 0 2.3-.5 2.3-1 .1-.6.3-1.9.4-3 .1-1.1.4-2.1.5-2.3.1-.1.3-1.6.4-3.2.1-1.7.4-3.5.7-4 .6-1.2.2-28.4-.5-33.5-1.3-9.1-1.8-11.7-2.6-14-.5-1.4-1.2-4.1-1.6-6-.3-1.9-.9-4-1.3-4.5-.3-.6-.6-1.2-.7-1.5 0-.3-.6-1.9-1.3-3.5-1.8-4.5-2.2-6-2.1-6.4.1-.2-.2-.7-.7-1-1.2-.9-4.5-7.1-3.8-7.1.4 0 0-.7-.8-1.5s-2.5-3.1-3.8-5.2c-3.4-5.7-17.5-19.2-24.9-24.1-3.6-2.3-6.9-4.5-7.5-5-1.9-1.5-20.2-9.2-21.9-9.2-.9 0-1.6-.4-1.6-.9s-.8-.8-1.7-.6c-1 .1-2.2 0-2.8-.4-.5-.3-1.3-.6-1.7-.7-.5-.1-.9-.2-1-.3-.2-.2-1.4-.4-2.8-.6-5-.7-8-1.4-9.1-2.1-.8-.5-.9-.3-.4.5.5 1 .3 1.1-1.1.4-1.1-.5-3-.8-4.4-.7-2.4.1-2.4.1.5-2.2 3-2.4 20.4-11.2 26-13.2 14.1-5 26.5-7.1 40-6.7 10 .3 16.7 1.1 19.5 2.5.8.4 2.9 1 4.6 1.3 4.5.9 5.2-2.2 1.4-6.2-1.6-1.6-2.6-3.2-2.3-3.5.4-.3.2-.6-.4-.6-.5 0-3.9-2.8-7.5-6.3-7.5-7.1-10.8-9.9-10.8-9.1 0 .2-1.2-.6-2.6-1.9-1.4-1.4-4.6-3.4-7-4.6-2.4-1.2-4.6-2.6-4.9-3.2-.4-.5-1.1-.7-1.6-.4-.5.4-.9.1-.9-.6s-.3-.9-.7-.6c-.3.4-1.1.3-1.7-.2C446 6 431.4 2 423.5 1.2c-4.7-.4-8.7-.7-8.8-.6zM92.5 17.8c-.1.2-1.6.5-3.1.7-1.6.2-3 .4-3.1.6-.2.1-1.2.3-2.3.4-1.1.1-2.1.3-2.2.5-.2.1-1.6.4-3.3.6-1.6.3-3.1.9-3.3 1.5-.2.5-.9.9-1.6.9-2 0-13.6 6.2-16.9 9-9.8 8.1-16.3 16.2-20.8 25.5-1.3 2.7-2.8 5.3-3.2 5.6-.5.3-.8 1-.8 1.5.1 1.4-1.1 7.8-1.7 8.9-1.2 2.1-1.8 19.4-.8 26 2.3 15.6 9.5 29.5 21.2 40.5 5.7 5.4 17 13 19.3 13 .6 0 1.1.4 1.1 1 0 .5 1.1 1 2.4 1 1.4 0 2.7.4 3 .9.3.4 2.5 1.2 4.8 1.6 2.4.5 5.2 1 6.3 1.2 9.8 1.8 28.8.4 34.4-2.7 1.2-.6 2.1-.8 2.1-.5 0 .3 1.7-.4 3.7-1.5 2.1-1.1 4.3-2 5-2 .7 0 1.3-.5 1.3-1 0-.6.7-1 1.5-1s1.5-.5 1.5-1c0-.6.7-1 1.5-1s1.5-.5 1.5-1.2c0-.6.3-.9.6-.5.5.5 3-1.4 8.8-6.8 2.8-2.7 11.2-12.9 10.7-12.9-.3-.1.7-2.1 2.1-4.6 9-15.4 10.8-39 4.4-56.8-3-8.5-8.9-18.5-12.8-22.1-1-.8-1.8-2.1-1.8-2.8 0-.7-.4-1.3-1-1.3-.5 0-2.2-1.2-3.8-2.8-4.6-4.4-7.5-6.6-10.7-8.2-1.7-.8-3.3-1.9-3.7-2.5-.4-.5-.8-.7-.8-.3 0 .4-2.2-.4-4.9-1.7-2.6-1.4-5.9-2.7-7.2-2.9-1.3-.3-2.4-.5-2.4-.7 0-.1-.9-.3-2-.5s-3.8-.6-6-1c-4.2-.6-16.5-1.1-17-.6z"/></svg>
